PathFileType	4	(X/Y/Z)	TVC_4_BWA_7_walk_RCNL2025.trc
DataRate	CameraRate	NumFrames	NumMarkers	Units	OrigDataRate	OrigDataStartFrame	OrigNumFrames
100	100	11	27	mm	100	1	474
Frame#	Time	R_Shoulder			L_Shoulder			C7			J_Notch			R_Elbow			L_Elbow			R_Wrist			L_Wrist			R_Asis			L_Asis			R_Psis			L_Psis			Sacral			Thoracic			Sternum			R_Thigh_Lateral			R_Knee_Lateral			R_Shank_Lateral			R_Ankle_Lateral			R_Heel			R_Toe			L_Thigh_Lateral			L_Knee_Lateral			L_Shank_Lateral			L_Ankle_Lateral			L_Heel			L_Toe		
		X1	Y1	Z1	X2	Y2	Z2	X3	Y3	Z3	X4	Y4	Z4	X5	Y5	Z5	X6	Y6	Z6	X7	Y7	Z7	X8	Y8	Z8	X9	Y9	Z9	X10	Y10	Z10	X11	Y11	Z11	X12	Y12	Z12	X13	Y13	Z13	X14	Y14	Z14	X15	Y15	Z15	X16	Y16	Z16	X17	Y17	Z17	X18	Y18	Z18	X19	Y19	Z19	X20	Y20	Z20	X21	Y21	Z21	X22	Y22	Z22	X23	Y23	Z23	X24	Y24	Z24	X25	Y25	Z25	X26	Y26	Z26	X27	Y27	Z27
1	0.00000000	-2039.476440	1292.528442	-91.261467	-2009.229858	1307.068359	-470.938690	-2084.346680	1364.917603	-272.564667	-1943.577271	1238.035645	-287.920197	-2139.791504	993.978394	-33.603203	-1973.665039	989.346497	-560.092163	-2115.536743	762.810852	-29.398818	-1827.210938	830.756958	-524.931580	-2017.433228	852.720154	-102.672142	-2072.677979	842.256714	-452.275696	-2177.702393	889.314697	-205.066757	-2188.857422	888.639587	-296.363770	-2183.279907	888.977142	-250.715263	-2168.905273	1119.859619	-273.826569	-1922.819946	1046.073486	-294.351776	-1924.085205	522.506042	-79.791939	-1911.109253	436.366180	-134.302704	-1865.565674	274.655823	-67.439423	-1798.104858	64.001244	-166.708786	-1848.927490	44.071030	-210.937561	-1680.469116	91.921143	-191.531631	-2096.696045	486.612030	-442.477051	-2120.363525	408.341766	-388.006104	-2164.327148	291.286713	-426.795685	-2256.199219	58.913330	-334.300781	-2301.740234	58.783779	-287.386841	-2124.397217	38.518124	-317.774292
2	0.01000000	-2029.908447	1291.376099	-90.111504	-1999.040894	1306.763428	-469.829376	-2074.280029	1364.611938	-271.341766	-1933.356934	1237.890381	-286.561951	-2132.052734	993.502197	-33.383057	-1963.339600	989.145508	-559.952332	-2111.215820	762.285645	-28.726958	-1814.380737	832.976562	-525.542526	-2005.874390	853.022705	-101.689224	-2063.039795	840.494812	-451.297668	-2166.971924	889.216797	-203.504517	-2178.530273	888.099121	-294.798340	-2172.751099	888.657959	-249.151428	-2158.655273	1119.413086	-273.056152	-1910.266235	1045.971191	-292.789368	-1915.479614	521.160583	-80.658218	-1899.731445	435.914032	-135.505890	-1860.608765	270.989990	-70.043251	-1796.281006	62.295414	-168.287262	-1846.544312	43.296520	-212.340988	-1676.882324	84.916847	-194.912628	-2089.592285	485.245636	-441.375427	-2115.828613	407.553406	-386.631104	-2161.126465	290.853607	-425.827332	-2256.802002	59.083115	-333.740356	-2302.312988	59.137615	-286.874420	-2123.986084	38.660511	-317.868927
3	0.02000000	-2020.283813	1290.471191	-88.957397	-1988.881958	1306.653687	-468.704590	-2064.238770	1364.443970	-270.112366	-1923.139160	1237.900391	-285.214172	-2124.006836	993.177246	-33.094814	-1953.343140	989.086731	-559.669983	-2106.269043	761.864105	-28.038535	-1802.184387	834.990631	-526.084991	-1994.357910	853.506836	-100.738396	-2053.326660	838.987671	-450.263245	-2156.275635	889.262573	-201.965195	-2168.235352	887.688110	-293.253662	-2162.255493	888.475342	-247.609428	-2148.433594	1119.108521	-272.268463	-1897.922729	1046.070557	-291.252960	-1906.507324	520.304321	-81.436218	-1888.529419	435.667114	-136.533691	-1854.531128	268.232941	-72.511292	-1794.342041	60.923969	-169.619766	-1844.210449	42.969212	-213.498001	-1673.374634	78.447159	-197.810410	-2082.069336	484.133942	-440.237122	-2110.290527	406.972565	-385.336334	-2157.271484	290.884277	-425.004181	-2256.973389	60.037666	-333.402954	-2302.444336	60.464371	-286.560455	-2123.575195	38.725014	-317.953308
4	0.03000000	-2010.602661	1289.813110	-87.799362	-1978.753662	1306.738647	-467.564484	-2054.223145	1364.413208	-268.876556	-1912.924438	1238.065186	-283.877045	-2115.654053	993.003052	-32.738392	-1943.675293	989.169739	-559.245483	-2100.694336	761.551056	-27.332467	-1790.621582	836.798950	-526.558914	-1982.884644	854.171326	-99.819260	-2043.539307	837.734741	-449.172577	-2145.614014	889.451477	-200.448715	-2157.972656	887.406006	-291.729675	-2151.793335	888.428741	-246.089195	-2138.240723	1118.945557	-271.463470	-1885.789795	1046.370117	-289.742859	-1897.148926	519.933228	-82.128830	-1877.505981	435.622467	-137.386169	-1847.322388	266.399384	-74.803635	-1792.286255	59.876736	-170.709976	-1841.928223	43.070560	-214.409378	-1669.953979	72.526207	-200.229324	-2074.118652	483.276306	-439.064087	-2103.742188	406.597687	-384.125000	-2152.750488	291.380157	-424.329376	-2256.707031	61.780064	-333.290588	-2302.124512	62.772926	-286.448517	-2123.168701	38.710865	-318.025970
5	0.04000000	-2000.864990	1289.399536	-86.637970	-1968.657471	1307.016724	-466.409546	-2044.234009	1364.518188	-267.634583	-1902.713623	1238.382935	-282.551178	-2106.995605	992.978088	-32.313534	-1934.334961	989.393555	-558.679688	-2094.485352	761.358551	-26.603531	-1779.691467	838.401123	-526.964066	-1971.456177	855.012756	-98.930672	-2033.681763	836.734436	-448.025909	-2134.987793	889.782043	-198.954926	-2147.742676	887.251587	-290.226196	-2141.365234	888.516815	-244.590561	-2128.077148	1118.922729	-270.640991	-1873.868042	1046.867065	-288.259949	-1887.367920	520.032776	-82.741898	-1866.669434	435.771332	-138.064072	-1838.993408	265.498901	-76.826897	-1790.120972	59.127613	-171.567200	-1839.712158	43.552502	-215.077744	-1666.650024	67.179192	-202.184357	-2065.718506	482.669159	-437.862976	-2096.164062	406.423615	-383.006012	-2147.533936	292.343048	-423.811646	-2255.984863	64.317162	-333.408447	-2301.327637	66.084167	-286.547852	-2122.775635	38.617382	-318.084229
6	0.05000000	-1991.071045	1289.226074	-85.474380	-1958.596191	1307.484497	-465.240875	-2034.272461	1364.756348	-266.387085	-1892.509033	1238.850586	-281.237885	-2098.034424	993.098877	-31.819702	-1925.320312	989.755615	-557.974365	-2087.626099	761.306915	-25.841123	-1769.392090	839.796173	-527.299973	-1960.075317	856.024048	-98.070343	-2023.760620	835.982849	-446.824005	-2124.397705	890.251343	-197.483521	-2137.546143	887.222473	-288.742950	-2130.971924	888.736908	-243.113235	-2117.943848	1119.037354	-269.800629	-1862.159546	1047.554443	-286.806335	-1877.127319	520.567688	-83.282143	-1856.038696	436.095245	-138.569702	-1829.636108	265.489044	-78.444389	-1787.876831	58.631813	-172.208237	-1837.596436	44.331734	-215.511108	-1663.524048	62.430264	-203.708008	-2056.825195	482.301636	-436.647675	-2087.523438	406.438293	-381.996277	-2141.566895	293.771179	-423.467010	-2254.773682	67.658447	-333.766266	-2300.004150	70.430733	-286.876068	-2122.411865	38.446827	-318.126251
7	0.06000000	-1981.221313	1289.284424	-84.310410	-1948.575073	1308.135864	-464.060272	-2024.340820	1365.123169	-265.134979	-1882.314331	1239.461914	-279.939514	-2088.774170	993.359009	-31.255962	-1916.627808	990.251404	-557.132690	-2080.088867	761.420288	-25.030795	-1759.720093	840.982574	-527.566010	-1948.747559	857.193115	-97.234619	-2013.786621	835.472351	-445.568085	-2113.846436	890.854187	-196.034103	-2127.384766	887.314453	-287.279541	-2120.615601	889.084320	-241.656822	-2107.842529	1119.284302	-268.941681	-1850.667603	1048.420898	-285.385712	-1866.422607	521.474609	-83.753761	-1845.648071	436.563873	-138.907288	-1819.479126	266.220978	-79.531677	-1785.614258	58.332928	-172.658371	-1835.632080	45.299896	-215.727493	-1660.659912	58.290718	-204.851135	-2047.369629	482.149384	-435.441193	-2077.775146	406.619781	-381.121490	-2134.766357	295.652405	-423.317932	-2253.020264	71.811615	-334.378601	-2298.079102	75.849655	-287.460114	-2122.096924	38.209480	-318.154541
8	0.07000000	-1971.316772	1289.561768	-83.148567	-1938.601685	1308.960815	-462.870483	-2014.442627	1365.611816	-263.879669	-1872.135498	1240.208374	-278.659637	-2079.221436	993.747986	-30.620928	-1908.252075	990.873657	-556.159363	-2071.839294	761.714447	-24.157542	-1750.669922	841.958313	-527.761292	-1937.480469	858.502625	-96.418594	-2003.774292	835.189819	-444.260345	-2103.337402	891.583008	-194.606354	-2117.260986	887.521484	-285.835693	-2110.299194	889.552246	-240.221024	-2097.775391	1119.656616	-268.063080	-1839.397583	1049.449219	-284.003876	-1855.312744	522.663330	-84.153931	-1835.552002	437.135864	-139.082611	-1808.911255	267.418701	-80.047867	-1783.413818	58.173531	-172.950058	-1833.872681	46.342896	-215.756638	-1658.137573	54.760338	-205.676743	-2037.255981	482.170227	-434.276001	-2066.871582	406.934753	-380.414551	-2127.024414	297.956573	-423.389740	-2250.652588	76.775246	-335.263062	-2295.453857	82.368629	-288.334534	-2121.844727	37.929825	-318.180389
9	0.08000000	-1961.359253	1290.040283	-81.992035	-1928.685791	1309.945435	-461.675354	-2004.582153	1366.213135	-262.623047	-1861.980103	1241.077759	-277.403046	-2069.383545	994.250977	-29.912802	-1900.186401	991.611694	-555.060913	-2062.851257	762.186737	-23.211521	-1742.234009	842.720764	-527.884720	-1926.285034	859.929565	-95.616455	-1993.741821	835.115417	-442.904388	-2092.875244	892.427673	-193.200211	-2107.177979	887.835693	-284.411377	-2100.026611	890.131683	-238.805794	-2087.745850	1120.144775	-267.163422	-1828.356567	1050.616089	-282.668732	-1843.941162	524.023560	-84.468323	-1825.824219	437.762848	-139.101730	-1798.475830	268.719849	-80.058723	-1781.357544	58.102909	-173.119598	-1832.360352	47.359188	-215.638016	-1656.008545	51.832947	-206.252335	-2026.366699	482.303680	-433.192688	-2054.774902	407.339508	-379.911987	-2118.218506	300.628632	-423.705322	-2247.581055	82.529533	-336.435944	-2292.013428	89.987625	-289.535461	-2121.648193	37.652473	-318.228241
10	0.09000000	-1951.351685	1290.697021	-80.844604	-1918.839600	1311.071411	-460.479919	-1994.764282	1366.915771	-261.367584	-1851.858276	1242.055176	-276.175720	-2059.270020	994.847900	-29.129513	-1892.422119	992.450989	-553.845703	-2053.121094	762.819122	-22.194220	-1734.401794	843.267120	-527.935165	-1915.175049	861.446289	-94.822060	-1983.709717	835.222351	-441.505920	-2082.466553	893.375488	-191.816177	-2097.139893	888.247437	-283.007172	-2089.803223	890.811462	-237.411674	-2077.758545	1120.737305	-266.240936	-1817.552368	1051.892944	-281.390076	-1832.536011	525.435303	-84.669304	-1816.551758	438.395050	-138.969833	-1788.834595	269.767273	-79.695160	-1779.515503	58.080761	-173.202866	-1831.117676	48.272186	-215.416885	-1654.289429	49.492741	-206.643478	-2014.573242	482.476562	-432.237213	-2041.472534	407.783630	-379.648895	-2108.224854	303.585541	-424.279480	-2243.704590	89.026581	-337.906219	-2287.637451	98.658539	-291.090912	-2121.456299	37.446278	-318.338318
11	0.10000000	-1941.298706	1291.504150	-79.710632	-1909.076416	1312.316406	-459.290314	-1984.994751	1367.706909	-260.116241	-1841.781982	1243.123291	-274.984589	-2048.890381	995.513916	-28.268990	-1884.949341	993.373535	-552.523621	-2042.676392	763.584045	-21.123891	-1727.160339	843.594543	-527.911255	-1904.166870	863.021423	-94.029549	-1973.699585	835.477478	-440.073456	-2072.119385	894.411621	-190.455521	-2087.151367	888.745789	-281.624481	-2079.635376	891.578705	-236.040001	-2067.817871	1121.421143	-265.293884	-1806.991699	1053.247192	-280.179047	-1821.387573	526.781555	-84.718399	-1807.822266	438.986450	-138.691132	-1780.656860	270.313232	-79.094681	-1777.937378	58.077789	-173.231720	-1830.147705	49.035473	-215.140427	-1652.966309	47.704842	-206.908661	-2001.753296	482.614166	-431.456604	-2026.992920	408.216339	-379.653290	-2096.942627	306.719391	-425.114136	-2238.915527	96.182129	-339.669098	-2282.209717	108.266808	-293.009430	-2121.150391	37.404835	-318.568176
